<?xml version="1.0" standalone="no"?>
<!DOCTYPE svg PUBLIC "-//W3C//DTD SVG 20010904//EN"
 "http://www.w3.org/TR/2001/REC-SVG-20010904/DTD/svg10.dtd">
<svg version="1.0" xmlns="http://www.w3.org/2000/svg"
 width="1537.000000pt" height="576.000000pt" viewBox="0 0 1537.000000 576.000000"
 preserveAspectRatio="xMidYMid meet">

<g transform="translate(0.000000,576.000000) scale(0.100000,-0.100000)"
fill="#000000" stroke="none">
<path d="M11055 4620 c-44 -4 -134 -12 -200 -18 -66 -6 -230 -13 -365 -17
-135 -3 -297 -10 -360 -15 -63 -5 -163 -10 -221 -10 -58 0 -150 -7 -205 -15
-54 -8 -140 -15 -189 -15 -50 0 -140 -7 -200 -15 -61 -8 -164 -17 -230 -20
-119 -4 -261 -15 -485 -36 -63 -6 -171 -15 -240 -19 -199 -14 -1078 -14 -1395
-1 -269 11 -348 17 -527 41 -36 5 -132 14 -212 20 -81 5 -165 14 -189 19 -23
6 -125 13 -227 16 -102 4 -221 13 -265 21 -46 8 -207 19 -375 24 -162 5 -351
14 -420 20 -164 14 -565 15 -859 1 -129 -5 -253 -8 -275 -5 -23 3 -75 1 -116
-5 -41 -7 -131 -16 -200 -22 -115 -9 -380 -45 -385 -51 -26 -40 -55 -102 -55
-118 0 -11 -7 -31 -16 -44 -8 -14 -28 -76 -44 -139 -33 -128 -59 -177 -170
-322 -116 -151 -116 -152 -160 -159 -23 -3 -43 -13 -46 -21 -4 -8 -14 -15 -24
-15 -11 0 -21 -4 -25 -10 -16 -27 -232 -60 -392 -61 -65 0 -201 -4 -303 -9
-102 -5 -353 -12 -559 -15 -319 -5 -379 -9 -412 -23 -22 -9 -42 -26 -45 -37
-4 -11 -12 -27 -19 -35 -7 -8 -16 -26 -20 -40 -4 -14 -23 -46 -41 -73 -19 -26
-34 -53 -34 -60 0 -8 -11 -24 -25 -37 -36 -34 -74 -106 -81 -154 -3 -23 -12
-59 -20 -80 -15 -40 -22 -215 -9 -236 4 -6 10 -50 15 -99 7 -78 14 -99 59
-187 28 -55 51 -105 51 -111 0 -5 14 -26 30 -44 40 -44 56 -75 71 -133 13 -52
52 -90 110 -106 18 -6 261 -12 539 -15 828 -10 1068 -28 1096 -84 7 -13 30
-32 53 -42 29 -13 49 -32 68 -65 16 -26 52 -74 81 -107 29 -33 73 -101 98
-151 25 -50 49 -95 55 -102 5 -6 16 -51 25 -100 9 -49 27 -112 40 -140 13 -28
24 -57 24 -65 0 -8 7 -23 15 -33 8 -11 15 -32 15 -47 0 -45 21 -57 112 -63 46
-3 148 -10 228 -16 214 -15 1129 -22 1398 -11 233 10 332 17 702 47 107 9 231
18 275 20 44 2 136 11 205 19 69 7 181 17 250 20 69 4 154 10 190 15 36 5 97
10 135 10 39 0 111 7 160 15 219 36 1376 53 1725 26 80 -7 232 -16 338 -21
107 -5 262 -18 345 -29 84 -11 204 -22 267 -26 63 -3 183 -13 265 -21 83 -8
218 -21 300 -30 83 -8 220 -19 305 -24 85 -5 209 -14 275 -20 66 -5 165 -12
220 -15 55 -3 109 -8 121 -10 46 -10 1038 -6 1121 4 49 6 149 15 223 22 199
16 198 16 225 33 14 9 25 24 25 34 0 9 6 27 13 38 34 60 67 127 67 137 0 11
35 92 51 117 5 8 16 31 24 50 9 19 20 43 26 54 6 10 22 55 35 99 13 44 44 114
69 156 25 41 45 86 45 98 0 16 13 31 43 50 23 15 65 42 94 60 29 19 89 43 135
55 81 22 98 22 728 23 640 1 782 7 892 38 25 7 55 20 66 30 10 9 23 17 28 17
17 0 60 53 75 90 7 19 40 71 72 114 68 92 75 107 107 203 20 60 29 74 52 82
l28 10 0 121 c0 119 0 121 -29 150 -20 22 -30 45 -35 80 -8 60 -104 249 -152
300 -18 19 -42 56 -54 82 -19 43 -34 64 -100 140 -25 28 -26 28 -165 32 -384
12 -513 17 -655 27 -85 5 -272 14 -415 19 -143 5 -276 13 -295 19 -19 6 -72
16 -118 22 -46 6 -96 17 -110 25 -15 8 -31 14 -36 14 -4 0 -43 28 -85 63 -42
35 -89 72 -104 82 -29 19 -67 82 -67 110 0 18 -88 193 -102 201 -4 3 -8 18 -8
33 0 16 -6 34 -14 40 -8 7 -18 26 -21 42 -4 16 -12 32 -18 36 -15 10 -57 95
-57 116 0 9 -20 37 -44 63 l-44 48 -183 8 c-101 4 -211 14 -244 22 -33 8 -72
17 -87 20 -43 9 -534 14 -623 6z"/>
</g>
</svg>
