<?xml version="1.0" standalone="no"?>
<!DOCTYPE svg PUBLIC "-//W3C//DTD SVG 20010904//EN"
 "http://www.w3.org/TR/2001/REC-SVG-20010904/DTD/svg10.dtd">
<svg version="1.0" xmlns="http://www.w3.org/2000/svg"
 width="1614.000000pt" height="605.000000pt" viewBox="0 0 1614.000000 605.000000"
 preserveAspectRatio="xMidYMid meet">

<g transform="translate(0.000000,605.000000) scale(0.100000,-0.100000)"
fill="#000000" stroke="none">
<path d="M7459 4536 c-2 -2 -164 -6 -359 -9 -244 -5 -383 -11 -445 -22 -49 -8
-146 -15 -215 -15 -125 0 -585 -26 -598 -34 -7 -4 -184 -12 -487 -22 -99 -3
-232 -12 -295 -19 -63 -8 -223 -17 -355 -21 -156 -4 -261 -11 -300 -20 -33 -8
-87 -17 -120 -20 -33 -3 -85 -14 -115 -25 -30 -10 -84 -23 -120 -28 -36 -5
-83 -19 -105 -30 -21 -12 -51 -21 -66 -21 -15 0 -40 -5 -56 -11 -15 -6 -55
-19 -88 -29 -33 -10 -102 -34 -154 -54 -51 -20 -102 -36 -111 -36 -10 0 -45
-9 -78 -19 -33 -11 -93 -23 -134 -27 -40 -3 -80 -10 -89 -15 -40 -21 -261 -59
-420 -73 -200 -18 -395 -22 -879 -18 -285 2 -381 -1 -550 -17 -275 -27 -462
-66 -588 -122 -24 -11 -63 -22 -87 -26 -37 -5 -55 -16 -111 -70 -37 -35 -76
-79 -88 -96 -22 -33 -86 -210 -86 -238 0 -9 -9 -36 -19 -60 -46 -103 -44 -533
2 -630 10 -19 22 -60 27 -90 5 -29 16 -74 24 -98 9 -24 16 -55 16 -68 0 -42
127 -155 239 -211 25 -13 58 -35 73 -49 22 -21 40 -26 120 -34 51 -4 113 -13
138 -19 43 -10 285 -15 1165 -24 220 -3 447 -10 505 -15 58 -6 152 -16 210
-22 58 -5 166 -26 240 -46 74 -19 160 -41 190 -48 30 -7 71 -19 90 -28 43 -19
119 -44 185 -61 28 -7 64 -20 80 -28 17 -9 70 -18 119 -22 50 -4 98 -12 108
-17 10 -6 52 -17 94 -24 41 -8 84 -21 97 -29 12 -8 53 -17 90 -21 38 -4 85
-13 104 -22 21 -8 93 -18 177 -22 77 -5 152 -13 166 -19 14 -5 97 -15 185 -22
88 -6 192 -18 230 -26 39 -8 140 -19 225 -24 85 -5 169 -14 187 -19 42 -12
412 -29 943 -42 239 -6 539 -15 665 -20 300 -13 3754 -20 3950 -8 83 5 209 13
280 19 72 6 254 17 407 24 152 8 280 16 285 19 5 4 109 13 230 22 175 12 230
19 264 35 24 11 51 20 59 20 8 0 31 8 50 18 19 11 55 22 79 26 24 4 55 16 69
26 13 11 30 20 37 20 6 0 20 9 29 19 10 11 36 23 59 27 23 3 51 12 62 19 11 8
43 17 70 20 33 5 68 20 105 44 30 21 74 43 96 49 23 7 47 19 54 27 7 8 24 15
39 15 14 0 41 9 60 21 60 36 165 71 244 80 42 5 114 14 160 19 45 6 375 15
732 20 367 5 683 14 725 20 41 6 100 15 131 19 41 5 67 15 92 37 19 16 59 45
87 64 29 19 69 51 89 71 20 20 54 50 77 67 33 25 45 44 64 99 12 37 31 82 41
99 11 17 19 41 19 54 0 12 8 34 19 48 52 75 53 539 1 680 -11 29 -20 64 -20
78 0 14 -8 38 -18 52 -28 41 -72 130 -72 146 0 17 -99 116 -116 116 -6 0 -14
6 -17 14 -3 7 -26 18 -51 25 -24 6 -47 15 -51 20 -8 14 -94 71 -106 71 -5 0
-23 7 -39 15 -87 45 -344 64 -861 66 -431 1 -735 11 -835 28 -33 6 -97 17
-144 25 -47 8 -98 21 -115 30 -16 9 -45 16 -63 16 -18 0 -45 6 -60 14 -15 7
-53 19 -84 25 -35 8 -71 24 -94 42 -33 26 -252 139 -269 139 -4 0 -20 11 -37
25 -16 14 -37 25 -47 25 -9 0 -33 8 -53 18 -22 12 -70 21 -125 25 -48 4 -111
13 -139 21 -29 7 -92 19 -140 26 -49 7 -108 19 -131 26 -23 7 -131 18 -240 24
-109 6 -238 15 -288 21 -140 17 -1067 26 -2661 27 -804 0 -1463 -1 -1465 -2z"/>
</g>
</svg>
