<?xml version="1.0" standalone="no"?>
<!DOCTYPE svg PUBLIC "-//W3C//DTD SVG 20010904//EN"
 "http://www.w3.org/TR/2001/REC-SVG-20010904/DTD/svg10.dtd">
<svg version="1.0" xmlns="http://www.w3.org/2000/svg"
 width="1454.000000pt" height="545.000000pt" viewBox="0 0 1454.000000 545.000000"
 preserveAspectRatio="xMidYMid meet">

<g transform="translate(0.000000,545.000000) scale(0.100000,-0.100000)"
fill="#000000" stroke="none">
<path d="M9340 4417 c-3 -3 -88 -8 -190 -12 -102 -4 -266 -11 -365 -16 -99 -5
-274 -13 -390 -18 -115 -6 -273 -14 -350 -20 -240 -18 -528 -30 -1215 -51
-162 -5 -367 -16 -455 -25 -88 -8 -227 -20 -309 -25 -82 -6 -166 -15 -185 -20
-20 -6 -88 -13 -151 -16 -63 -2 -122 -7 -130 -11 -8 -3 -82 -12 -165 -19 -201
-18 -380 -40 -393 -48 -6 -3 -109 -9 -229 -11 -120 -3 -229 -10 -243 -15 -14
-5 -67 -10 -118 -12 -64 -3 -96 -8 -102 -18 -5 -9 -43 -16 -112 -21 -119 -9
-236 -25 -293 -40 -51 -13 -181 -37 -265 -49 -36 -5 -82 -16 -102 -24 -22 -10
-66 -16 -107 -16 -38 0 -82 -5 -98 -11 -15 -7 -77 -15 -138 -20 -61 -4 -127
-14 -147 -23 -21 -9 -55 -16 -77 -16 -21 0 -81 -11 -132 -25 -52 -14 -119 -32
-149 -39 -189 -47 -242 -60 -300 -77 -84 -24 -156 -37 -251 -43 -42 -2 -98
-11 -125 -20 -27 -8 -76 -22 -109 -31 -33 -10 -80 -25 -105 -35 -25 -10 -63
-21 -85 -25 -55 -9 -136 -36 -160 -52 -10 -7 -41 -16 -67 -19 -26 -4 -49 -13
-52 -20 -4 -9 -22 -14 -57 -14 -36 0 -58 -6 -76 -20 -14 -11 -32 -20 -39 -20
-17 0 -98 -41 -102 -52 -2 -4 -10 -8 -18 -8 -8 0 -22 -8 -32 -17 -26 -26 -96
-73 -109 -73 -6 0 -16 -7 -23 -15 -7 -8 -22 -15 -34 -15 -11 0 -30 -7 -40 -15
-11 -8 -28 -15 -37 -15 -10 0 -43 -24 -73 -52 -69 -67 -136 -124 -174 -152
-28 -19 -62 -73 -62 -97 0 -6 -11 -34 -24 -62 -13 -29 -27 -79 -31 -112 -6
-62 9 -200 24 -219 5 -6 17 -51 27 -101 l19 -90 77 -79 c43 -43 78 -82 78 -87
0 -5 4 -9 9 -9 5 0 30 -20 54 -45 25 -25 53 -45 61 -45 9 0 16 -4 16 -10 0 -5
11 -10 24 -10 30 0 87 -20 104 -37 7 -7 18 -13 25 -13 6 0 20 -8 31 -19 12
-10 41 -28 66 -41 25 -12 52 -27 60 -31 8 -5 31 -17 50 -25 19 -9 39 -22 43
-30 4 -8 16 -14 25 -14 9 -1 35 -9 57 -20 22 -11 54 -20 70 -20 17 -1 48 -8
70 -16 22 -8 64 -21 92 -28 29 -7 58 -18 65 -23 7 -6 31 -14 53 -18 22 -4 51
-13 65 -21 14 -7 41 -18 60 -23 19 -5 49 -14 65 -20 40 -14 185 -56 265 -76
36 -9 99 -28 140 -41 43 -13 99 -24 130 -24 64 0 209 -22 365 -55 228 -49 322
-67 400 -74 44 -4 85 -10 92 -14 6 -4 64 -14 129 -22 66 -9 144 -22 174 -29
30 -8 96 -17 147 -20 50 -4 113 -13 140 -21 26 -8 111 -19 188 -25 77 -6 176
-17 219 -25 44 -8 83 -12 87 -9 4 2 70 -1 146 -6 76 -6 220 -15 321 -20 100
-5 211 -14 246 -20 71 -11 312 -35 451 -45 50 -4 140 -13 200 -20 61 -8 220
-19 355 -25 135 -6 315 -17 401 -26 303 -28 943 -52 1999 -74 278 -6 571 -12
652 -14 82 -2 205 0 275 5 71 4 211 10 313 13 213 5 427 21 585 42 61 9 184
18 275 20 234 8 261 9 390 27 116 15 224 37 270 55 14 5 54 10 89 11 36 2 74
9 85 17 11 8 37 14 57 14 35 0 85 13 189 47 25 8 70 19 100 23 30 5 73 14 95
19 22 6 58 11 80 11 22 0 50 6 61 14 11 8 38 18 60 21 21 4 46 13 54 19 16 13
168 70 215 81 16 3 50 20 75 37 25 17 63 35 85 39 114 22 178 41 221 67 27 16
60 31 74 35 14 3 34 13 45 22 83 64 199 125 238 125 24 0 61 24 118 77 19 18
38 33 43 33 5 0 16 7 25 16 9 8 52 42 96 75 85 64 283 263 306 307 7 15 33 50
56 78 24 28 43 56 43 62 0 6 10 19 23 29 35 28 87 96 87 113 0 9 9 34 20 55
14 26 23 70 27 126 6 95 -6 136 -65 213 -15 19 -38 54 -52 77 -29 48 -99 158
-115 177 -20 25 -70 72 -77 72 -5 0 -8 5 -8 10 0 19 -139 149 -183 171 -23 12
-44 25 -47 29 -3 5 -32 28 -65 52 -33 25 -87 68 -120 96 -33 28 -73 54 -90 58
-38 8 -96 39 -165 86 -30 21 -65 38 -77 38 -13 0 -23 5 -23 10 0 6 -10 14 -23
19 -28 11 -89 51 -112 75 -9 9 -24 16 -33 16 -10 0 -26 6 -37 14 -11 7 -54 16
-95 20 -41 4 -82 13 -90 21 -8 7 -31 15 -50 19 -20 3 -51 14 -70 25 -19 10
-51 22 -70 26 -19 4 -44 14 -55 21 -11 8 -33 14 -50 14 -17 0 -39 6 -50 14
-11 7 -36 17 -55 21 -19 4 -51 15 -70 25 -45 23 -191 56 -305 70 -49 6 -109
18 -133 26 -23 7 -62 14 -85 14 -23 1 -69 7 -102 14 -412 93 -838 149 -1260
166 -308 12 -779 22 -785 17z"/>
</g>
</svg>
